<?xml version="1.0" standalone="no"?>
<!DOCTYPE svg PUBLIC "-//W3C//DTD SVG 20010904//EN"
 "http://www.w3.org/TR/2001/REC-SVG-20010904/DTD/svg10.dtd">
<svg version="1.0" xmlns="http://www.w3.org/2000/svg"
 width="2031.000000pt" height="2031.000000pt" viewBox="0 0 2031.000000 2031.000000"
 preserveAspectRatio="xMidYMid meet">
<metadata>
Created by potrace 1.14, written by Peter Selinger 2001-2017
</metadata>
<g transform="translate(0.000000,2031.000000) scale(0.100000,-0.100000)"
fill="#000000" stroke="none">
<path d="M4941 20299 c-24 -5 -135 -53 -245 -108 -314 -155 -551 -324 -791
-566 -198 -198 -333 -390 -390 -553 l-25 -73 1 -517 c0 -284 4 -1158 9 -1942
5 -784 11 -2003 15 -2710 3 -707 10 -2120 15 -3140 5 -1020 12 -2449 16 -3175
4 -726 10 -1916 13 -2645 l7 -1325 27 -95 c128 -467 478 -792 942 -875 81 -15
211 -16 1250 -10 638 3 1347 7 1575 10 228 3 973 7 1655 10 682 3 1369 8 1527
11 l288 6 2 -1295 3 -1295 116 111 c136 130 1122 1090 1317 1281 73 72 137
131 141 131 5 0 65 -54 132 -119 180 -174 783 -760 1004 -976 105 -102 247
-242 318 -310 l127 -124 0 1307 0 1307 88 0 c625 0 2465 12 2520 16 59 5 81
11 119 37 140 94 130 302 -18 377 -37 20 -64 20 -1374 20 l-1335 0 0 244 0
244 383 6 c210 3 804 8 1320 12 516 3 952 10 969 15 160 46 208 253 84 367
-26 24 -63 46 -88 53 -60 16 -3463 6 -7868 -26 -2985 -21 -3643 -26 -3936 -31
l-331 -6 -13 -57 c-17 -71 -15 -259 2 -331 l13 -55 245 0 c647 1 1867 8 3515
20 996 8 1975 14 2178 15 l367 0 0 -245 0 -245 -437 0 c-241 0 -915 -4 -1498
-10 -1523 -13 -2267 -19 -3315 -26 -1046 -7 -997 -10 -1166 71 -67 32 -111 63
-167 115 -412 384 -264 1036 278 1224 l60 21 5940 5 c5416 5 5944 6 5982 21
142 55 234 149 285 291 l23 63 2 7510 c1 4467 -2 7538 -8 7580 -17 135 -111
275 -227 338 -114 62 385 57 -5882 56 -3178 -1 -5735 -5 -5759 -10z m2711
-2018 c167 -65 246 -200 255 -441 12 -306 -101 -494 -332 -556 -61 -17 -225
-18 -297 -3 -163 35 -263 142 -304 326 -22 102 -15 312 14 393 58 164 148 252
301 296 75 22 292 13 363 -15z m984 8 c45 -14 79 -32 101 -54 30 -30 33 -38
33 -93 0 -33 -3 -67 -6 -76 -8 -22 -40 -20 -75 4 -126 90 -275 83 -358 -17
-92 -111 -99 -391 -14 -516 70 -101 214 -120 359 -45 85 43 94 37 94 -56 0
-88 -10 -103 -99 -138 -48 -19 -76 -22 -191 -23 -163 0 -218 17 -306 97 -100
92 -144 214 -144 403 0 216 60 358 191 457 103 77 274 100 415 57z m716 1 c36
-11 72 -28 81 -38 22 -25 31 -72 23 -127 -9 -54 -23 -57 -97 -20 -139 71 -269
41 -269 -60 0 -60 27 -84 176 -156 195 -95 243 -155 244 -304 0 -63 -5 -90
-24 -130 -41 -87 -108 -141 -210 -170 -119 -34 -348 -4 -399 53 -34 38 -30
163 6 170 9 2 45 -10 79 -27 130 -64 263 -59 312 11 9 13 16 43 16 69 0 41 -4
51 -34 77 -19 16 -85 55 -148 85 -156 76 -215 138 -233 245 -24 146 54 276
195 325 66 23 203 22 282 -3z m3780 0 c36 -11 72 -28 81 -38 22 -25 31 -72 23
-127 -9 -54 -23 -57 -97 -20 -139 71 -269 41 -269 -60 0 -60 27 -84 176 -156
195 -95 243 -155 244 -304 0 -63 -5 -90 -24 -130 -41 -87 -108 -141 -210 -170
-119 -34 -348 -4 -399 53 -34 38 -30 163 6 170 9 2 45 -10 79 -27 130 -64 263
-59 312 11 9 13 16 43 16 69 0 41 -4 51 -34 77 -19 16 -85 55 -148 85 -156 76
-215 138 -233 245 -24 146 54 276 195 325 66 23 203 22 282 -3z m-6576 -23
c125 -41 232 -148 270 -271 22 -70 29 -245 14 -335 -24 -142 -104 -257 -219
-315 -92 -47 -161 -57 -383 -54 l-202 3 -13 25 c-20 39 -14 930 6 954 13 16
36 17 245 14 182 -4 242 -8 282 -21z m4100 -10 c118 -55 168 -136 168 -277 0
-72 -4 -95 -28 -148 -34 -73 -86 -124 -165 -160 -47 -22 -75 -27 -168 -30
l-113 -5 0 -158 c0 -192 2 -189 -110 -189 -58 0 -83 4 -94 16 -14 14 -16 70
-16 464 0 442 3 492 33 513 7 4 107 6 222 5 207 -3 211 -4 271 -31z m706 21
c20 -17 341 -930 336 -960 -3 -22 -7 -23 -99 -26 -74 -2 -99 1 -108 12 -6 7
-27 58 -45 112 l-33 99 -184 0 -184 0 -32 -98 c-17 -54 -37 -105 -44 -113 -9
-11 -32 -14 -98 -12 -85 3 -86 3 -89 30 -3 27 297 902 324 946 14 21 21 22
127 22 76 0 118 -4 129 -12z m969 -8 c75 -23 131 -66 162 -123 31 -60 32 -204
0 -262 -26 -49 -65 -86 -116 -112 l-39 -19 25 -17 c14 -9 39 -36 55 -59 42
-62 154 -327 150 -358 -3 -25 -5 -25 -97 -28 -54 -2 -98 2 -106 8 -7 5 -38 73
-70 150 -83 204 -109 236 -203 247 l-52 6 0 -191 c0 -160 -3 -193 -16 -206
-22 -23 -166 -23 -189 0 -14 14 -15 66 -13 483 2 379 6 471 17 484 12 15 40
17 221 17 179 0 217 -3 271 -20z m1693 4 c3 -9 6 -37 6 -64 0 -84 11 -80 -196
-80 l-184 0 0 -120 0 -119 158 -3 157 -3 9 -37 c6 -24 6 -52 0 -75 l-9 -38
-157 -3 -158 -3 0 -139 0 -140 188 -2 187 -3 0 -75 0 -75 -285 0 -284 0 -13
25 c-19 38 -14 930 6 953 12 15 45 17 291 17 244 0 279 -2 284 -16z m687 -4
c75 -23 131 -66 162 -123 31 -60 32 -204 0 -262 -26 -49 -65 -86 -116 -112
l-39 -19 25 -17 c14 -9 39 -36 55 -59 42 -62 154 -327 150 -358 -3 -25 -5 -25
-97 -28 -54 -2 -98 2 -106 8 -7 5 -38 73 -70 150 -83 204 -109 236 -203 247
l-52 6 0 -191 c0 -160 -3 -193 -16 -206 -22 -23 -166 -23 -189 0 -14 14 -15
66 -13 483 2 379 6 471 17 484 12 15 40 17 221 17 179 0 217 -3 271 -20z
m-4727 -526 c3 -9 6 -37 6 -64 0 -84 11 -80 -196 -80 -207 0 -204 -1 -204 80
0 81 -3 80 204 80 158 0 185 -2 190 -16z m-1059 -3009 c149 -22 183 -29 268
-58 307 -106 556 -333 668 -612 70 -176 99 -341 99 -575 0 -235 -30 -403 -101
-557 l-29 -63 -45 0 c-50 0 -129 -16 -157 -31 -10 -5 -22 -9 -28 -9 -18 0
-114 -62 -153 -99 -86 -80 -142 -194 -161 -326 l-12 -80 -49 -24 c-98 -47
-139 -59 -305 -93 -49 -10 -206 -13 -650 -13 l-585 0 -3 1265 c-1 696 0 1271
3 1278 7 19 1104 17 1240 -3z m1979 -4 c11 -17 6 -2291 -4 -2411 -10 -108 -37
-248 -61 -315 -22 -62 -27 -72 -59 -140 -51 -111 -116 -199 -216 -295 -110
-105 -202 -161 -338 -208 -131 -45 -242 -62 -411 -62 -231 0 -395 47 -582 169
-154 99 -313 294 -357 438 -8 25 -13 23 122 48 45 8 117 26 160 40 78 26 89
30 152 59 l35 16 60 -65 c114 -122 233 -175 394 -175 53 0 114 5 136 11 143
40 265 140 335 276 52 100 50 57 50 1379 0 677 3 1233 7 1237 10 11 571 8 577
-2z m1808 -10 c206 -36 395 -111 577 -231 87 -57 201 -154 201 -171 0 -11
-291 -379 -299 -379 -4 0 -42 27 -86 61 -102 77 -274 161 -390 190 -73 19
-117 23 -235 24 -219 0 -320 -33 -425 -140 -72 -73 -90 -122 -90 -245 0 -72 4
-92 27 -135 41 -78 121 -147 243 -208 64 -33 262 -118 475 -204 47 -19 100
-41 118 -49 17 -8 49 -21 70 -30 378 -164 571 -346 667 -629 12 -36 35 -229
35 -295 -1 -283 -142 -560 -375 -734 -222 -167 -483 -245 -819 -246 -169 0
-226 7 -401 47 -257 58 -504 185 -719 369 -43 36 -76 69 -74 74 3 9 237 286
301 357 l38 42 82 -66 c215 -174 434 -270 692 -302 91 -11 249 1 348 27 66 17
150 64 200 111 89 83 121 168 115 303 -7 159 -86 256 -292 358 -68 33 -126 60
-129 60 -6 0 -59 23 -242 105 -100 44 -165 72 -220 95 -348 146 -553 309 -663
527 -134 265 -117 608 41 856 98 152 304 318 482 387 78 31 116 42 193 59 115
26 133 28 299 29 100 2 174 -4 255 -17z m-2785 -2053 c79 -29 162 -112 191
-191 49 -129 20 -270 -73 -363 -71 -71 -130 -97 -230 -102 -69 -3 -88 0 -137
21 -142 63 -218 173 -218 317 0 143 87 270 218 320 68 26 177 25 249 -2z
m3613 -10344 c0 -729 -4 -1234 -9 -1232 -5 2 -62 54 -128 117 -227 219 -749
726 -870 845 l-122 120 -303 -294 c-167 -162 -379 -369 -473 -461 -219 -214
-334 -323 -346 -327 -5 -2 -8 478 -7 1225 l3 1228 795 3 c437 1 809 4 825 6
17 1 166 4 333 4 l302 2 0 -1236z"/>
<path d="M7389 18130 c-91 -15 -153 -70 -186 -165 -26 -73 -25 -289 1 -363 36
-106 107 -154 226 -154 73 0 110 12 158 48 138 106 135 506 -6 599 -33 22 -56
29 -127 39 -11 2 -41 0 -66 -4z"/>
<path d="M6230 17790 l0 -343 93 7 c120 9 159 21 211 67 63 56 89 122 94 243
6 129 -14 208 -69 269 -52 60 -112 84 -232 93 l-97 7 0 -343z"/>
<path d="M10350 17964 l0 -167 76 7 c137 11 182 64 176 204 -1 21 -13 44 -34
67 -27 29 -44 37 -93 45 -33 6 -75 10 -92 10 l-33 0 0 -166z"/>
<path d="M11158 17880 l-66 -200 134 0 c74 0 134 3 134 7 0 13 -122 378 -129
385 -4 4 -36 -82 -73 -192z"/>
<path d="M12040 17990 l0 -143 80 6 c127 10 180 50 180 136 0 95 -41 127 -173
137 l-87 7 0 -143z"/>
<path d="M14420 17990 l0 -143 80 6 c127 10 180 50 180 136 0 95 -41 127 -173
137 l-87 7 0 -143z"/>
<path d="M8307 14183 c-4 -3 -7 -325 -7 -715 l0 -708 236 0 c135 0 254 5 278
11 146 37 205 68 287 149 141 140 194 293 194 565 0 209 -28 327 -107 452 -88
139 -210 210 -408 239 -97 14 -461 20 -473 7z"/>
</g>
</svg>
